<svg width="80" height="80" viewBox="0 0 80 80" fill="none" xmlns="http://www.w3.org/2000/svg">
<g filter="url(#filter0_d)">
<path d="M54.5 21.5083C54.5 23.7166 52.7083 25.5083 50.5 25.5083C48.2917 25.5083 46.5 23.7166 46.5 21.5083C46.5 19.3 48.2917 17.5083 50.5 17.5083C52.7083 17.5083 54.5 19.2983 54.5 21.5083Z" fill="#EC1C1C"/>
<path d="M68.31 24.7424C66.975 21.344 64.5267 16.439 60.445 12.3774C56.3783 8.32903 51.525 5.9507 48.1717 4.66903C44.4883 3.2607 40.3033 4.14903 37.51 6.92903L27.6933 16.7007C24.7833 19.5974 23.945 24.054 25.6067 27.7907C26.1217 28.949 26.6817 30.0824 27.2817 31.1774L5.73167 52.724C5.26333 53.194 5 53.829 5 54.4924V65.4924C5 66.874 6.11833 67.9924 7.5 67.9924H18.5C19.8817 67.9924 21 66.874 21 65.4924V60.9924H25.5C26.88 60.9924 28 59.8724 28 58.4924V53.9924H32.5C33.88 53.9924 35 52.874 35 51.4924C35 50.1124 33.88 48.9924 32.5 48.9924H25.5C24.1183 48.9924 23 50.1124 23 51.4924V55.9924H18.5C17.1183 55.9924 16 57.1124 16 58.4924V62.9924H10V55.5274L32.17 33.3574C32.985 32.5424 33.1367 31.2774 32.54 30.2924C31.6733 28.864 30.8783 27.339 30.175 25.7574C29.35 23.9024 29.77 21.6857 31.22 20.2424L41.0367 10.4707C42.4383 9.0757 44.5383 8.6307 46.3867 9.33736C49.29 10.4474 53.4733 12.489 56.92 15.919C60.3867 19.369 62.4983 23.6157 63.6567 26.569C64.38 28.4124 63.9417 30.5074 62.5367 31.9057L52.6017 41.7957C51.155 43.2357 48.995 43.6557 47.1 42.8674C45.5367 42.2174 44.0233 41.444 42.6 40.5724C41.4233 39.849 39.8833 40.2174 39.1617 41.3957C38.44 42.5724 38.8083 44.1124 39.985 44.834C41.63 45.8424 43.3767 46.7357 45.18 47.4857C48.9483 49.054 53.2467 48.2107 56.13 45.3407L66.0667 35.4507C68.88 32.6457 69.7617 28.4424 68.31 24.7424Z" fill="#EC1C1C"/>
</g>
<defs>
<filter id="filter0_d" x="0" y="0" width="80" height="80" filterUnits="userSpaceOnUse" color-interpolation-filters="sRGB">
<feFlood flood-opacity="0" result="BackgroundImageFix"/>
<feColorMatrix in="SourceAlpha" type="matrix" values="0 0 0 0 0 0 0 0 0 0 0 0 0 0 0 0 0 0 127 0"/>
<feOffset dx="3" dy="4"/>
<feGaussianBlur stdDeviation="4"/>
<feColorMatrix type="matrix" values="0 0 0 0 0.92549 0 0 0 0 0.109804 0 0 0 0 0.109804 0 0 0 0.49 0"/>
<feBlend mode="normal" in2="BackgroundImageFix" result="effect1_dropShadow"/>
<feBlend mode="normal" in="SourceGraphic" in2="effect1_dropShadow" result="shape"/>
</filter>
</defs>
</svg>
