<svg width="74" height="80" viewBox="0 0 74 80" fill="none" xmlns="http://www.w3.org/2000/svg">
<g filter="url(#filter0_d)">
<path d="M46.1264 31.5C46.1264 30.1183 45.0016 29 43.6119 29H17.7131C16.3234 29 15.1986 30.1183 15.1986 31.5C15.1986 32.8817 16.3234 34 17.7131 34H43.6119C45.0016 34 46.1264 32.8817 46.1264 31.5Z" fill="#299DF0"/>
<path d="M17.7131 39C16.3234 39 15.1986 40.1183 15.1986 41.5C15.1986 42.8817 16.3234 44 17.7131 44H33.4418C34.8298 44 35.9562 42.88 35.9562 41.5C35.9562 40.12 34.8298 39 33.4418 39H17.7131Z" fill="#299DF0"/>
<path d="M23.622 63H15.2137C12.4411 63 10.1848 60.7567 10.1848 58V14C10.1848 11.2433 12.4411 9 15.2137 9H46.128C48.9006 9 51.1569 11.2433 51.1569 14V29.375C51.1569 30.7567 52.2817 31.875 53.6714 31.875C55.061 31.875 56.1858 30.7567 56.1858 29.375V14C56.1858 8.485 51.6749 4 46.128 4H15.2137C9.66848 4 5.15588 8.485 5.15588 14V58C5.15588 63.515 9.66848 68 15.2137 68H23.6237C25.0133 68 26.1381 66.88 26.1381 65.5C26.1381 64.12 25.0117 63 23.622 63Z" fill="#299DF0"/>
<path d="M60.6381 40.1966C57.6962 37.2716 52.912 37.2716 49.9718 40.195L36.1674 53.89C35.8741 54.1817 35.6578 54.5383 35.5372 54.9333L32.5315 64.7733C32.265 65.645 32.4963 66.5933 33.1367 67.245C33.6161 67.7333 34.2682 68 34.937 68C35.1617 68 35.3863 67.97 35.6076 67.9083L45.7559 65.1133C46.1733 64.9983 46.5538 64.7783 46.8606 64.4733L60.6364 50.8033C63.58 47.8783 63.58 43.1216 60.6381 40.1966ZM43.7778 60.47L38.6718 61.8767L40.1654 56.9867L49.4806 47.745L53.0377 51.2817L43.7778 60.47ZM57.0843 47.2667L56.5965 47.75L53.0411 44.215L53.5272 43.7333C54.5078 42.7583 56.102 42.7583 57.0826 43.7333C58.0633 44.7066 58.0633 46.2933 57.0843 47.2667Z" fill="#299DF0"/>
<path d="M43.6119 19H17.7131C16.3234 19 15.1986 20.1183 15.1986 21.5C15.1986 22.8817 16.3234 24 17.7131 24H43.6119C45.0016 24 46.1264 22.8817 46.1264 21.5C46.1264 20.1183 45.0016 19 43.6119 19Z" fill="#299DF0"/>
</g>
<defs>
<filter id="filter0_d" x="0" y="0" width="74" height="80" filterUnits="userSpaceOnUse" color-interpolation-filters="sRGB">
<feFlood flood-opacity="0" result="BackgroundImageFix"/>
<feColorMatrix in="SourceAlpha" type="matrix" values="0 0 0 0 0 0 0 0 0 0 0 0 0 0 0 0 0 0 127 0"/>
<feOffset dx="3" dy="4"/>
<feGaussianBlur stdDeviation="4"/>
<feColorMatrix type="matrix" values="0 0 0 0 0.184314 0 0 0 0 0.533333 0 0 0 0 0.882353 0 0 0 0.45 0"/>
<feBlend mode="normal" in2="BackgroundImageFix" result="effect1_dropShadow"/>
<feBlend mode="normal" in="SourceGraphic" in2="effect1_dropShadow" result="shape"/>
</filter>
</defs>
</svg>
