<svg width="18" height="18" viewBox="0 0 18 18" fill="none" xmlns="http://www.w3.org/2000/svg">
<g id="timeline_24px">
<path id="icon/action/timeline_24px" d="M17.25 6C17.25 6.825 16.575 7.5 15.75 7.5C15.615 7.5 15.4875 7.485 15.3675 7.4475L12.6975 10.11C12.735 10.23 12.75 10.365 12.75 10.5C12.75 11.325 12.075 12 11.25 12C10.425 12 9.75 11.325 9.75 10.5C9.75 10.365 9.765 10.23 9.8025 10.11L7.89 8.1975C7.77 8.235 7.635 8.25 7.5 8.25C7.365 8.25 7.23 8.235 7.11 8.1975L3.6975 11.6175C3.735 11.7375 3.75 11.865 3.75 12C3.75 12.825 3.075 13.5 2.25 13.5C1.425 13.5 0.75 12.825 0.75 12C0.75 11.175 1.425 10.5 2.25 10.5C2.385 10.5 2.5125 10.515 2.6325 10.5525L6.0525 7.14C6.015 7.02 6 6.885 6 6.75C6 5.925 6.675 5.25 7.5 5.25C8.325 5.25 9 5.925 9 6.75C9 6.885 8.985 7.02 8.9475 7.14L10.86 9.0525C10.98 9.015 11.115 9 11.25 9C11.385 9 11.52 9.015 11.64 9.0525L14.3025 6.3825C14.265 6.2625 14.25 6.135 14.25 6C14.25 5.175 14.925 4.5 15.75 4.5C16.575 4.5 17.25 5.175 17.25 6Z" fill="#EB2227"/>
</g>
</svg>
