<svg width="72" height="72" viewBox="0 0 72 72" fill="none" xmlns="http://www.w3.org/2000/svg">
<g id="add_photo_alternate_24px" opacity="0.3">
<path id="icon/image/add_photo_alternate_24px" fill-rule="evenodd" clip-rule="evenodd" d="M58.5 4.5V13.5H67.5V19.5H58.5V28.47C58.5 28.47 52.53 28.5 52.5 28.47V19.5H43.5C43.5 19.5 43.53 13.53 43.5 13.5H52.5V4.5H58.5ZM52.5 61.5H10.5V19.5H37.5V13.5H10.5C7.2 13.5 4.5 16.2 4.5 19.5V61.5C4.5 64.8 7.2 67.5 10.5 67.5H52.5C55.8 67.5 58.5 64.8 58.5 61.5V34.5H52.5V61.5ZM29.13 51.9901L23.25 44.9101L15 55.5001H48L37.38 41.3701L29.13 51.9901Z" fill="black" fill-opacity="0.54"/>
</g>
</svg>
