<svg width="16" height="19" viewBox="0 0 16 19" fill="none" xmlns="http://www.w3.org/2000/svg">
<g clip-path="url(#clip0)">
<path d="M14.9877 6.46248H14.5541V4.36895C14.5541 4.35577 14.5519 4.34303 14.5501 4.32941C14.5492 4.24637 14.5229 4.16465 14.4662 4.10006L10.9826 0.121262C10.9817 0.119944 10.9804 0.119944 10.9799 0.119065C10.9593 0.0957794 10.9351 0.0764478 10.9092 0.0597523C10.9013 0.05448 10.8938 0.0505258 10.8859 0.0456929C10.8639 0.0338303 10.8402 0.0237252 10.816 0.0162561C10.8095 0.0144987 10.8037 0.0118626 10.7972 0.0101052C10.7708 0.0039542 10.7436 0 10.7159 0H2.15504C1.76401 0 1.4468 0.318093 1.4468 0.70868V6.46248H1.01315C0.453415 6.46248 0 6.91545 0 7.47475V12.7409C0 13.2997 0.453415 13.7536 1.01271 13.7536H1.44636V17.3585C1.44636 17.7491 1.76401 18.0672 2.1546 18.0672H13.8454C14.236 18.0672 14.5541 17.7495 14.5541 17.3585V13.7536H14.9877C15.547 13.7536 16.0004 13.3002 16.0004 12.7409V7.47519C16.0004 6.91545 15.547 6.46248 14.9877 6.46248ZM2.15504 0.70868H10.3618V4.3338C10.3618 4.52931 10.5204 4.68792 10.7159 4.68792H13.8454V6.46248H2.15504V0.70868ZM7.48837 10.32C6.60922 10.0138 6.0363 9.52742 6.0363 8.75855C6.0363 7.85567 6.78936 7.16457 8.03756 7.16457C8.63421 7.16457 9.074 7.29022 9.3877 7.43169L9.12101 8.39696C8.90925 8.29459 8.53228 8.14565 8.01428 8.14565C7.49628 8.14565 7.24541 8.38114 7.24541 8.65574C7.24541 8.9936 7.54373 9.14254 8.22649 9.40132C9.16056 9.74666 9.59991 10.233 9.59991 10.979C9.59991 11.8657 8.91715 12.6196 7.46508 12.6196C6.86097 12.6196 6.26389 12.4623 5.966 12.2976L6.20897 11.3086C6.53102 11.4738 7.02529 11.6381 7.53582 11.6381C8.08502 11.6381 8.37587 11.4105 8.37587 11.0647C8.37543 10.7352 8.12412 10.5472 7.48837 10.32ZM1.25568 9.97424C1.25568 8.16893 2.54343 7.16457 4.144 7.16457C4.76393 7.16457 5.23492 7.29022 5.44713 7.40006L5.20372 8.34951C4.96032 8.24802 4.62246 8.15399 4.19892 8.15399C3.24947 8.15399 2.51179 8.72647 2.51179 9.90351C2.51179 10.9632 3.13963 11.6302 4.20727 11.6302C4.56798 11.6302 4.96823 11.5515 5.20372 11.4575L5.3843 12.3916C5.16462 12.5014 4.67035 12.6196 4.02669 12.6196C2.19809 12.6196 1.25568 11.4812 1.25568 9.97424ZM13.8454 17.1665H2.15504V13.7536H13.8458V17.1665H13.8454ZM13.0541 12.541H11.657L9.9615 7.25112H11.2725L11.9158 9.48832C12.0963 10.1162 12.2611 10.7203 12.3867 11.3797H12.41C12.5432 10.744 12.7079 10.1157 12.8885 9.5116L13.5638 7.25112H14.8357L13.0541 12.541Z" fill="#1D83FF"/>
</g>
<defs>
<clipPath id="clip0">
<rect width="16" height="18.0672" fill="white"/>
</clipPath>
</defs>
</svg>
