<svg width="18" height="18" viewBox="0 0 18 18" fill="none" xmlns="http://www.w3.org/2000/svg">
<path d="M15 12.75V5.25C15 3.624 12.2527 2.25 9 2.25C5.74725 2.25 3 3.624 3 5.25V12.75C3 14.376 5.74725 15.75 9 15.75C12.2527 15.75 15 14.376 15 12.75ZM9 3.75C11.7682 3.75 13.4482 4.88025 13.5 5.2455C13.4482 5.61975 11.7682 6.75 9 6.75C6.23175 6.75 4.55175 5.61975 4.5 5.2545C4.55175 4.88025 6.23175 3.75 9 3.75ZM4.5 7.20525C5.60925 7.8405 7.22775 8.25 9 8.25C10.7722 8.25 12.3907 7.8405 13.5 7.20525V8.9955C13.4482 9.36975 11.7682 10.5 9 10.5C6.23175 10.5 4.55175 9.36975 4.5 9V7.20525ZM4.5 12.75V10.9552C5.60925 11.5905 7.22775 12 9 12C10.7722 12 12.3907 11.5905 13.5 10.9552V12.7455C13.4482 13.1198 11.7682 14.25 9 14.25C6.23175 14.25 4.55175 13.1198 4.5 12.75Z" fill="#EB2227"/>
</svg>
