<svg width="18" height="20" viewBox="0 0 18 20" fill="none" xmlns="http://www.w3.org/2000/svg">
<path d="M12.7633 8.59375C12.7633 8.16198 12.4143 7.8125 11.983 7.8125H3.94542C3.51414 7.8125 3.16507 8.16198 3.16507 8.59375C3.16507 9.02552 3.51414 9.375 3.94542 9.375H11.983C12.4143 9.375 12.7633 9.02552 12.7633 8.59375Z" fill="#18A837"/>
<path d="M3.94542 10.9375C3.51414 10.9375 3.16507 11.287 3.16507 11.7188C3.16507 12.1505 3.51414 12.5 3.94542 12.5H8.82674C9.2575 12.5 9.60709 12.15 9.60709 11.7188C9.60709 11.2875 9.2575 10.9375 8.82674 10.9375H3.94542Z" fill="#18A837"/>
<path d="M5.77924 18.4375H3.16976C2.3093 18.4375 1.60906 17.7365 1.60906 16.875V3.125C1.60906 2.26354 2.3093 1.5625 3.16976 1.5625H12.7639C13.6243 1.5625 14.3246 2.26354 14.3246 3.125V7.92969C14.3246 8.36146 14.6736 8.71094 15.1049 8.71094C15.5362 8.71094 15.8853 8.36146 15.8853 7.92969V3.125C15.8853 1.40156 14.4853 0 12.7639 0H3.16976C1.44883 0 0.0483704 1.40156 0.0483704 3.125V16.875C0.0483704 18.5984 1.44883 20 3.16976 20H5.77976C6.21103 20 6.56011 19.65 6.56011 19.2188C6.56011 18.7875 6.21051 18.4375 5.77924 18.4375Z" fill="#18A837"/>
<path d="M17.267 11.3116C16.354 10.3975 14.8692 10.3975 13.9567 11.3111L9.67264 15.5908C9.5816 15.6819 9.51449 15.7934 9.47703 15.9168L8.54426 18.9918C8.46154 19.2642 8.53333 19.5606 8.73206 19.7642C8.88085 19.9168 9.08322 20.0001 9.29079 20.0001C9.3605 20.0001 9.43021 19.9908 9.49888 19.9715L12.6484 19.0981C12.7779 19.0621 12.896 18.9934 12.9912 18.8981L17.2665 14.6262C18.18 13.7121 18.18 12.2257 17.267 11.3116ZM12.0345 17.647L10.4499 18.0866L10.9134 16.5585L13.8043 13.6704L14.9082 14.7757L12.0345 17.647ZM16.1641 13.521L16.0127 13.672L14.9093 12.5673L15.0602 12.4168C15.3645 12.1121 15.8592 12.1121 16.1636 12.4168C16.4679 12.721 16.4679 13.2168 16.1641 13.521Z" fill="#18A837"/>
<path d="M11.983 4.6875H3.94542C3.51414 4.6875 3.16507 5.03698 3.16507 5.46875C3.16507 5.90052 3.51414 6.25 3.94542 6.25H11.983C12.4143 6.25 12.7633 5.90052 12.7633 5.46875C12.7633 5.03698 12.4143 4.6875 11.983 4.6875Z" fill="#18A837"/>
</svg>
