<svg width="18" height="18" viewBox="0 0 18 18" fill="none" xmlns="http://www.w3.org/2000/svg">
<g id="dvr_24px">
<path id="icon/device/dvr_24px" fill-rule="evenodd" clip-rule="evenodd" d="M2.25 2.25H15.75C16.575 2.25 17.25 2.925 17.25 3.75V12.75C17.25 13.575 16.575 14.25 15.75 14.25H12V15.75H6V14.25H2.25C1.425 14.25 0.75 13.575 0.75 12.75V3.75C0.75 2.925 1.425 2.25 2.25 2.25ZM2.25 12.75H15.75V3.75H2.25V12.75ZM14.25 6H6V7.5H14.25V6ZM6 9H14.25V10.5H6V9ZM5.25 6H3.75V7.5H5.25V6ZM3.75 9H5.25V10.5H3.75V9Z" fill="#EB2227"/>
</g>
</svg>
