<svg width="24" height="24" viewBox="0 0 24 24" fill="none" xmlns="http://www.w3.org/2000/svg">
<rect width="24" height="24" rx="6" fill="white"/>
<path d="M8.625 5.25H6C5.5875 5.25 5.25 5.5875 5.25 6C5.25 13.0425 10.9575 18.75 18 18.75C18.4125 18.75 18.75 18.4125 18.75 18V15.3825C18.75 14.97 18.4125 14.6325 18 14.6325C17.07 14.6325 16.1625 14.4825 15.3225 14.205C15.2475 14.175 15.165 14.1675 15.09 14.1675C14.895 14.1675 14.7075 14.2425 14.5575 14.385L12.9075 16.035C10.785 14.9475 9.045 13.215 7.965 11.0925L9.615 9.4425C9.825 9.2325 9.885 8.94 9.8025 8.6775C9.525 7.8375 9.375 6.9375 9.375 6C9.375 5.5875 9.0375 5.25 8.625 5.25Z" fill="#EB2227"/>
<path d="M7.90496 6.75C7.94996 7.4175 8.06246 8.07 8.24246 8.6925L7.34246 9.5925C7.03496 8.6925 6.83996 7.74 6.77246 6.75H7.90496V6.75Z" fill="#EB2227"/>
<path d="M15.3 15.765C15.9375 15.945 16.59 16.0575 17.25 16.1025V17.22C16.26 17.1525 15.3075 16.9575 14.4 16.6575L15.3 15.765V15.765Z" fill="#EB2227"/>
</svg>
