<svg width="16" height="16" viewBox="0 0 16 16" fill="none" xmlns="http://www.w3.org/2000/svg">
<path d="M8 5.91719C6.85312 5.91719 5.91719 6.85313 5.91719 8C5.91719 9.14688 6.85312 10.0828 8 10.0828C9.14687 10.0828 10.0828 9.14688 10.0828 8C10.0828 6.85313 9.14687 5.91719 8 5.91719ZM14.2469 8C14.2469 7.1375 14.2547 6.28282 14.2062 5.42188C14.1578 4.42188 13.9297 3.53438 13.1984 2.80313C12.4656 2.07032 11.5797 1.84375 10.5797 1.79532C9.71719 1.74688 8.8625 1.75469 8.00156 1.75469C7.13906 1.75469 6.28437 1.74688 5.42344 1.79532C4.42344 1.84375 3.53594 2.07188 2.80469 2.80313C2.07187 3.53594 1.84531 4.42188 1.79687 5.42188C1.74844 6.28438 1.75625 7.13907 1.75625 8C1.75625 8.86094 1.74844 9.71719 1.79687 10.5781C1.84531 11.5781 2.07344 12.4656 2.80469 13.1969C3.5375 13.9297 4.42344 14.1563 5.42344 14.2047C6.28594 14.2531 7.14062 14.2453 8.00156 14.2453C8.86406 14.2453 9.71875 14.2531 10.5797 14.2047C11.5797 14.1563 12.4672 13.9281 13.1984 13.1969C13.9312 12.4641 14.1578 11.5781 14.2062 10.5781C14.2562 9.71719 14.2469 8.8625 14.2469 8ZM8 11.2047C6.22656 11.2047 4.79531 9.77344 4.79531 8C4.79531 6.22657 6.22656 4.79532 8 4.79532C9.77344 4.79532 11.2047 6.22657 11.2047 8C11.2047 9.77344 9.77344 11.2047 8 11.2047ZM11.3359 5.4125C10.9219 5.4125 10.5875 5.07813 10.5875 4.66407C10.5875 4.25 10.9219 3.91563 11.3359 3.91563C11.75 3.91563 12.0844 4.25 12.0844 4.66407C12.0845 4.76239 12.0652 4.85977 12.0277 4.95063C11.9901 5.04149 11.935 5.12404 11.8654 5.19357C11.7959 5.26309 11.7134 5.31822 11.6225 5.35578C11.5316 5.39335 11.4343 5.41263 11.3359 5.4125Z" fill="#EB2227"/>
</svg>
