<svg width="18" height="18" viewBox="0 0 18 18" fill="none" xmlns="http://www.w3.org/2000/svg">
<g id="power_settings_new_24px">
<path id="icon/action/power_settings_new_24px" fill-rule="evenodd" clip-rule="evenodd" d="M8.25 2.25H9.75V9.75H8.25V2.25ZM12.3075 4.94252L13.3725 3.87752C14.8275 5.11502 15.75 6.94502 15.75 9.00002C15.75 12.7275 12.7275 15.75 9 15.75C5.2725 15.75 2.25 12.7275 2.25 9.00002C2.25 6.94502 3.1725 5.11502 4.6275 3.87752L5.685 4.93502C4.5075 5.89502 3.75 7.35752 3.75 9.00002C3.75 11.9025 6.0975 14.25 9 14.25C11.9025 14.25 14.25 11.9025 14.25 9.00002C14.25 7.35752 13.4925 5.89502 12.3075 4.94252Z" fill="#EB2227"/>
</g>
</svg>
