<svg width="18" height="21" viewBox="0 0 18 21" fill="none" xmlns="http://www.w3.org/2000/svg">
<g clip-path="url(#clip0)">
<path d="M4.75585 10.4129C4.75585 9.86527 4.37602 9.53906 3.70539 9.53906C3.43183 9.53906 3.24634 9.56514 3.14941 9.59171V11.3492C3.26405 11.3753 3.40526 11.3841 3.59912 11.3841C4.31402 11.3841 4.75585 11.022 4.75585 10.4129Z" fill="#1D83FF"/>
<path d="M8.90722 9.55859C8.60659 9.55859 8.41274 9.58467 8.29761 9.61124V13.5051C8.41274 13.5321 8.59823 13.5321 8.76601 13.5321C9.98425 13.5405 10.7789 12.8699 10.7789 11.4479C10.7877 10.2115 10.0635 9.55859 8.90722 9.55859Z" fill="#1D83FF"/>
<path d="M16.861 7.27006H16.3729V4.91477C16.3729 4.90001 16.3704 4.88525 16.3685 4.87049C16.368 4.77701 16.338 4.685 16.274 4.61218L12.3551 0.135797C12.3541 0.134813 12.3526 0.134321 12.3521 0.133337C12.329 0.10726 12.3014 0.0856112 12.2729 0.0664225C12.2645 0.0610103 12.2557 0.0560901 12.2468 0.0511699C12.2217 0.0373934 12.1952 0.026077 12.1681 0.0182047C12.1607 0.0162366 12.1538 0.0127925 12.1469 0.0113164C12.1174 0.00442817 12.0864 0 12.0554 0H2.42417C1.98431 0 1.6271 0.357697 1.6271 0.79707V7.27006H1.13902C0.510223 7.26957 0 7.7798 0 8.4086V14.333C0 14.9618 0.510223 15.472 1.13902 15.472H1.6271V19.5272C1.6271 19.9666 1.98431 20.3243 2.42417 20.3243H15.5758C16.0152 20.3243 16.3729 19.9666 16.3729 19.5272V15.472H16.861C17.4898 15.472 18 14.9618 18 14.333V8.40909C18 7.77979 17.4898 7.27006 16.861 7.27006ZM2.42417 0.796578H11.6569V4.87492C11.6569 5.09485 11.8355 5.27345 12.0554 5.27345H15.5758V7.27006H2.42417V0.796578ZM12.2089 11.403C12.2089 12.5425 11.7942 13.3278 11.219 13.8139C10.5927 14.335 9.63913 14.5819 8.47354 14.5819C7.77635 14.5819 7.28187 14.5377 6.94582 14.4939V8.64772C7.4403 8.5685 8.08534 8.52422 8.76531 8.52422C9.89498 8.52422 10.6281 8.72742 11.2023 9.15991C11.8202 9.61945 12.2089 10.3521 12.2089 11.403ZM1.81506 14.5204V8.64772C2.22983 8.57785 2.81287 8.52422 3.63405 8.52422C4.46408 8.52422 5.05598 8.68314 5.45304 9.00098C5.83288 9.30112 6.08824 9.79559 6.08824 10.3786C6.08824 10.9617 5.89438 11.4562 5.54111 11.7912C5.08206 12.2237 4.40209 12.4185 3.60699 12.4185C3.43084 12.4185 3.27143 12.4097 3.14843 12.392V14.52L1.81506 14.5204ZM15.5758 19.3122H2.42417V15.4725H15.5758V19.3122ZM16.7306 9.6721H14.4432V11.032H16.58V12.1268H14.4432V14.52H13.0926V8.5685H16.7301V9.6721H16.7306Z" fill="#1D83FF"/>
</g>
<defs>
<clipPath id="clip0">
<rect width="18" height="20.3253" fill="white"/>
</clipPath>
</defs>
</svg>
