<svg width="18" height="18" viewBox="0 0 18 18" fill="none" xmlns="http://www.w3.org/2000/svg">
<path d="M12.375 7.83984H5.625C5.54766 7.83984 5.48438 7.90312 5.48438 7.98047V15.0469C5.48438 15.1242 5.54766 15.1875 5.625 15.1875H12.375C12.4523 15.1875 12.5156 15.1242 12.5156 15.0469V7.98047C12.5156 7.90312 12.4523 7.83984 12.375 7.83984ZM6.60938 8.96484H11.3906V11.0215H6.60938V8.96484ZM11.3906 14.0625H6.60938V12.0059H11.3906V14.0625Z" fill="#EB2227"/>
<path d="M7.45312 13.1484C7.45312 13.2976 7.51239 13.4407 7.61788 13.5462C7.72337 13.6517 7.86644 13.7109 8.01562 13.7109C8.16481 13.7109 8.30788 13.6517 8.41337 13.5462C8.51886 13.4407 8.57812 13.2976 8.57812 13.1484C8.57812 12.9993 8.51886 12.8562 8.41337 12.7507C8.30788 12.6452 8.16481 12.5859 8.01562 12.5859C7.86644 12.5859 7.72337 12.6452 7.61788 12.7507C7.51239 12.8562 7.45312 12.9993 7.45312 13.1484ZM7.45312 10.0195C7.45312 10.1687 7.51239 10.3118 7.61788 10.4173C7.72337 10.5228 7.86644 10.582 8.01562 10.582C8.16481 10.582 8.30788 10.5228 8.41337 10.4173C8.51886 10.3118 8.57812 10.1687 8.57812 10.0195C8.57812 9.87035 8.51886 9.72727 8.41337 9.62178C8.30788 9.51629 8.16481 9.45703 8.01562 9.45703C7.86644 9.45703 7.72337 9.51629 7.61788 9.62178C7.51239 9.72727 7.45312 9.87035 7.45312 10.0195Z" fill="#EB2227"/>
<path d="M14.2629 6.48457C13.4579 4.35937 11.4065 2.84766 9.00357 2.84766C6.60064 2.84766 4.54927 4.35762 3.74419 6.48281C2.23072 6.88184 1.11626 8.26523 1.12505 9.90703C1.1356 11.7422 2.55943 13.2346 4.3524 13.3945C4.43501 13.4016 4.50532 13.3365 4.50532 13.2539V12.1922C4.50532 12.1219 4.45259 12.0621 4.38228 12.0533C3.90767 11.9936 3.45943 11.7861 3.1149 11.4469C2.69302 11.0338 2.46099 10.4783 2.46099 9.88945C2.46099 9.39726 2.62095 8.9332 2.92154 8.54648C3.21509 8.17031 3.62818 7.89785 4.08345 7.77832L4.74966 7.60254L4.994 6.95742C5.14517 6.55664 5.35611 6.18047 5.62154 5.84121C5.88345 5.50371 6.19458 5.2084 6.54263 4.9623C7.26509 4.4543 8.11587 4.18535 9.00357 4.18535C9.89126 4.18535 10.742 4.4543 11.4645 4.96406C11.8143 5.21016 12.1237 5.50547 12.3856 5.84297C12.651 6.18223 12.862 6.5584 13.0131 6.95918L13.2557 7.60254L13.9202 7.77832C14.8729 8.03144 15.5391 8.89805 15.5391 9.88769C15.5391 10.4783 15.3071 11.032 14.8852 11.4451C14.5424 11.7826 14.096 11.9918 13.6213 12.0516C13.551 12.0604 13.5001 12.1201 13.5001 12.1904V13.2539C13.5001 13.3365 13.5721 13.4016 13.6547 13.3945C15.4424 13.2328 16.8627 11.7422 16.8751 9.91055C16.8856 8.26875 15.7729 6.88535 14.2629 6.48457Z" fill="#EB2227"/>
</svg>
