<svg width="16" height="19" viewBox="0 0 16 19" fill="none" xmlns="http://www.w3.org/2000/svg">
<g clip-path="url(#clip0)">
<path d="M14.9882 6.46248H14.5541V4.36939C14.5541 4.35621 14.5519 4.34347 14.5506 4.32985C14.5497 4.24681 14.5233 4.16509 14.4662 4.1005L10.9826 0.121262C10.9817 0.120383 10.9804 0.119944 10.9799 0.119065C10.9593 0.0957794 10.9351 0.0764478 10.9092 0.0597523C10.9017 0.05448 10.8943 0.0505258 10.8863 0.0456929C10.8644 0.0338303 10.8407 0.0237252 10.8165 0.0162561C10.8099 0.0144987 10.8042 0.0118626 10.7976 0.0101052C10.7708 0.0039542 10.7436 0 10.7159 0H2.15504C1.76445 0 1.4468 0.318093 1.4468 0.70868V6.46248H1.01315C0.453415 6.46248 0 6.91545 0 7.47519V12.7413C0 13.3002 0.453415 13.754 1.01271 13.754H1.44636V17.3589C1.44636 17.7495 1.76401 18.0676 2.1546 18.0676H13.845C14.2355 18.0676 14.5536 17.75 14.5536 17.3589V13.754H14.9873C15.5466 13.754 16 13.3006 16 12.7413V7.47519C16.0004 6.91545 15.547 6.46248 14.9882 6.46248ZM2.15504 0.70868H10.3618V4.3338C10.3618 4.52931 10.5204 4.68792 10.7159 4.68792H13.8454V6.46248H2.15504V0.70868ZM9.33234 10.3688C8.63641 10.1263 8.18211 9.74094 8.18211 9.13156C8.18211 8.41673 8.77876 7.86973 9.76775 7.86973C10.2401 7.86973 10.5885 7.96902 10.8367 8.08106L10.6254 8.84554C10.4575 8.76514 10.1592 8.64651 9.74885 8.64651C9.3385 8.64651 9.13947 8.83324 9.13947 9.05072C9.13947 9.31828 9.37584 9.43603 9.91625 9.64121C10.6561 9.91493 11.0041 10.3002 11.0041 10.8907C11.0041 11.5933 10.4632 12.1899 9.31301 12.1899C8.83412 12.1899 8.36181 12.066 8.12587 11.9351L8.31831 11.1517C8.57314 11.2822 8.96504 11.4131 9.36881 11.4131C9.80421 11.4131 10.034 11.233 10.034 10.9593C10.0349 10.6983 9.83628 10.5489 9.33234 10.3688ZM7.72914 11.3323V12.1284H5.11146V7.93783H6.0631V11.3327H7.72914V11.3323ZM2.072 12.128H0.990307L2.20249 10.0072L1.03336 7.93695H2.12165L2.48807 8.70187C2.61241 8.95669 2.70599 9.16187 2.80528 9.39825H2.81715C2.91688 9.13068 2.99772 8.94439 3.10317 8.70187L3.45773 7.93695H4.53942L3.35799 9.98215L4.60137 12.1275H3.50737L3.12821 11.3692C2.97268 11.077 2.87338 10.8595 2.7552 10.617H2.74289C2.6559 10.8595 2.55046 11.0775 2.41953 11.3692L2.072 12.128ZM13.8454 17.1669H2.15504V13.754H13.8454V17.1669ZM13.852 12.128L13.4724 11.3692C13.3169 11.077 13.2176 10.8595 13.0994 10.617H13.0875C13.0005 10.8595 12.8946 11.077 12.7637 11.3692L12.4162 12.128H11.334L12.5462 10.0072L11.3775 7.93695H12.4654L12.8322 8.70187C12.9566 8.95669 13.0493 9.16187 13.149 9.39825H13.1613C13.2606 9.13068 13.341 8.94439 13.4469 8.70187L13.8015 7.93695H14.8832L13.7017 9.98215L14.9451 12.1275L13.852 12.128Z" fill="#1D83FF"/>
</g>
<defs>
<clipPath id="clip0">
<rect width="16" height="18.0672" fill="white"/>
</clipPath>
</defs>
</svg>
