<svg width="12" height="12" viewBox="0 0 12 12" fill="none" xmlns="http://www.w3.org/2000/svg">
<g id="lock_24px 2">
<path id="icon/action/lock_24px 2" fill-rule="evenodd" clip-rule="evenodd" d="M8.5 4.25H9C9.55 4.25 10 4.7 10 5.25V10.25C10 10.8 9.55 11.25 9 11.25H3C2.45 11.25 2 10.8 2 10.25V5.25C2 4.7 2.45 4.25 3 4.25H3.5V3.25C3.5 1.87 4.62 0.75 6 0.75C7.38 0.75 8.5 1.87 8.5 3.25V4.25ZM6 1.75C5.17 1.75 4.5 2.42 4.5 3.25V4.25H7.5V3.25C7.5 2.42 6.83 1.75 6 1.75Z" fill="white"/>
<path id="Path" d="M9 10.25H3V5.25H9V10.25Z" fill="white"/>
<path id="Path_2" d="M6 8.75C6.55 8.75 7 8.3 7 7.75C7 7.2 6.55 6.75 6 6.75C5.45 6.75 5 7.2 5 7.75C5 8.3 5.45 8.75 6 8.75Z" fill="#EB2227"/>
</g>
</svg>
