<svg width="170" height="38" viewBox="0 0 170 38" fill="none" xmlns="http://www.w3.org/2000/svg">
<g clip-path="url(#clip0)">
<path d="M29.9296 14.008C29.0554 12.6793 27.9128 11.6392 26.5479 10.9407C25.1829 10.2649 23.7413 9.93087 22.2229 9.93087H22.1769C20.3212 9.97642 18.7185 10.4244 17.2768 11.2975L17.2385 11.3203C16.6173 11.7075 16.0882 12.1479 15.6435 12.649C15.1834 12.1554 14.6466 11.7151 14.0254 11.3506C12.5378 10.4775 10.8507 10.022 9.12535 10.022H9.09468H9.06401C7.49199 10.0751 6.08868 10.4016 4.88475 10.9634C3.51211 11.6164 2.36186 12.611 1.46466 13.9093C0.989219 14.585 0.605801 15.3443 0.337408 16.1415V16.1718L0.32974 16.2098C0.115025 16.9614 0 17.7966 0 18.7001V35.4717H4.90009C4.90009 35.4717 4.90009 19.4366 4.90009 19.2392C5.01511 18.0699 5.23749 17.2348 5.55956 16.7564L5.56723 16.7413L5.58257 16.7185C5.99666 16.0579 6.49511 15.572 7.10091 15.2607C7.72204 14.9343 8.35085 14.7824 9.02567 14.7824C9.88452 14.7824 10.5133 14.9267 11.1268 15.2835C11.7863 15.6404 12.2847 16.1339 12.6681 16.8096L12.6835 16.84C13.0669 17.4625 13.2586 18.2446 13.2586 19.1556V35.4869H18.1587V18.9734C18.1587 18.6014 18.2124 18.2294 18.3197 17.7814C18.4578 17.3942 18.6111 17.0525 18.7798 16.802L18.7952 16.7868L18.8105 16.764C19.2399 16.0655 19.7 15.6328 20.2291 15.3746L20.2598 15.3594C20.9423 15.0254 21.5941 14.8659 22.3073 14.8659C23.0128 14.8659 23.6492 15.0102 24.2704 15.3139L24.3011 15.3291L24.3317 15.3443C24.8838 15.5872 25.3286 16.0124 25.781 16.7033L25.7964 16.7261L25.8117 16.7489C26.1108 17.174 26.2335 17.4701 26.2872 17.6523C26.4022 18.1231 26.4635 18.5027 26.4635 18.8823V35.4717H31.3559V18.9734C31.3559 18.032 31.2102 17.1285 30.9342 16.2857C30.7118 15.4354 30.3744 14.6685 29.9296 14.008ZM30.9188 16.225C30.9265 16.2402 30.9265 16.2629 30.9342 16.2781C30.9419 16.3009 30.9495 16.3237 30.9495 16.3465L30.9188 16.225ZM53.2415 11.753C53.2415 11.7606 53.2491 11.7606 53.2568 11.7606C53.2568 11.7682 53.2645 11.7682 53.2645 11.7682L53.2415 11.753ZM49.9364 10.4547C49.9517 10.4547 49.9671 10.4623 49.9824 10.4699C49.9977 10.4699 50.0054 10.4775 50.0207 10.4775L49.9364 10.4547ZM54.7981 23.3618C54.7981 24.1666 54.7138 24.7816 54.5451 25.2296L54.5297 25.2599L54.5221 25.2827C54.292 25.9584 53.9316 26.6342 53.5482 27.3175C52.8504 28.4715 51.9072 29.3826 50.6572 30.0887L50.6189 30.1039C50.0131 30.4683 49.3766 30.7341 48.7248 30.8935H48.6941L48.6634 30.9011C47.981 31.0909 47.2678 31.1896 46.547 31.1896C46.3093 31.1517 44.9596 30.9542 44.7449 30.9239C43.3263 30.5063 42.1453 29.8837 41.2481 29.0713C41.2328 29.0561 41.2175 29.041 41.2021 29.0258C41.3402 28.9271 58.5326 17.4018 58.5326 17.4018L57.8502 16.1566C56.8763 14.38 55.3733 12.9526 53.2568 11.7682C52.2062 11.1532 51.1327 10.7357 49.9747 10.4699C48.9088 10.1738 47.7356 10.022 46.4703 10.022C44.0931 10.022 41.9613 10.6142 39.9599 11.829C38.0658 12.983 36.5244 14.5622 35.3972 16.4983C34.73 17.5688 34.3313 18.609 34.0092 19.5656L33.9939 19.596L33.9862 19.6264C33.6795 20.6893 33.5261 21.7902 33.5261 22.9063C33.5261 24.3109 33.6795 25.4118 34.0015 26.3836C34.3543 27.4997 34.799 28.4867 35.3818 29.4206C36.5474 31.4174 38.1578 33.0118 40.1746 34.1582L40.2052 34.1734C42.291 35.3123 44.5225 35.8589 46.8307 35.8134C49.0929 35.8134 51.171 35.3275 53.0191 34.3632C55.0129 33.3459 56.5772 31.9337 57.7888 30.0432C58.5633 28.8891 59.0387 27.849 59.2841 26.7784C59.2765 26.824 59.2688 26.8619 59.2458 26.9075L59.2841 26.7784C59.6139 25.7307 59.7672 24.6146 59.7672 23.3542V21.7902H54.7905V23.3618H54.7981ZM38.8249 24.7209C38.6869 24.1439 38.6102 23.5896 38.6102 23.0581C38.6256 22.8987 38.6869 22.2382 38.6869 22.2382C38.6869 22.2458 38.7482 21.6991 38.7713 21.4713C39.078 19.9756 39.6378 18.7305 40.4276 17.7662L40.443 17.7435C41.2941 16.6805 42.153 15.9972 43.1346 15.5948L43.1806 15.5796C44.3308 15.0633 45.3891 14.8432 46.524 14.8735L46.5777 14.8811C47.8199 14.8811 48.9778 15.1241 50.1051 15.6176L50.1358 15.6328L50.1664 15.648C50.6112 15.8226 50.9946 16.0352 51.3474 16.2933C48.8705 17.9409 39.0243 24.5842 38.8249 24.7209ZM35.3895 16.5135C35.3972 16.5059 35.3972 16.5059 35.4048 16.4983C35.4048 16.4907 35.4125 16.4831 35.4202 16.4755L35.3895 16.5135ZM34.0169 26.4064C34.0169 26.3988 34.0092 26.3988 34.0092 26.3912C34.0015 26.3836 34.0015 26.376 34.0015 26.3608L34.0169 26.4064ZM46.8614 35.821C46.8537 35.821 46.846 35.821 46.8384 35.821H46.8614ZM35.4202 29.4737C35.4125 29.4585 35.4048 29.4509 35.3895 29.4282L35.3818 29.4206L35.4202 29.4737ZM57.8041 30.0432C57.8041 30.0508 57.7965 30.0508 57.7965 30.0583C57.7888 30.0659 57.7888 30.0735 57.7811 30.0811L57.8041 30.0432ZM66.8988 4.43397H61.9221V27.4845C61.9221 29.9824 62.6659 31.964 64.1382 33.361C65.6105 34.7505 67.4279 35.4641 69.5367 35.4641H74.7129V30.567C74.7129 30.567 70.4339 30.6961 70.3112 30.7037C70.2192 30.6961 70.0505 30.6961 70.0505 30.6961C69.6288 30.6733 69.1917 30.6506 69 30.567L68.8006 30.4911L68.5935 30.4607C68.3328 30.4304 68.1411 30.3089 67.8037 30.0887L67.7193 30.0356L67.6887 30.0204C67.2592 29.7622 66.9908 29.1321 66.9065 28.1527V15.2076C68.9233 15.2076 74.7206 15.2076 74.7206 15.2076V10.4547C74.7206 10.4547 68.9233 10.4547 66.9065 10.4547C66.8988 8.74645 66.8988 4.43397 66.8988 4.43397ZM81.0623 1.04775C79.5516 1.82218 78.4167 2.83197 77.6652 4.04675C76.8754 5.2995 76.4996 6.65854 76.4996 8.32887V35.4717H81.4764C81.4764 35.4717 81.4764 17.8801 81.4764 15.2076C83.6389 15.2076 90.5711 15.2076 90.5711 15.2076V10.4547C90.5711 10.4547 83.6389 10.4547 81.4764 10.4547C81.4764 9.91569 81.4764 9.33866 81.4764 9.33866C81.4764 7.86574 81.7984 6.78761 82.4503 6.03596C82.872 5.5956 83.2478 5.2995 83.7002 5.07173C84.1526 4.85914 84.6511 4.75285 85.3489 4.75285H90.5711V0H85.9317C84.099 0 82.4579 0.349251 81.0623 1.04775ZM141.719 17.4929C141.719 17.5005 141.719 17.5157 141.727 17.5233C141.734 17.5385 141.734 17.5536 141.742 17.5688L141.719 17.4929ZM140.576 14.9115C139.687 13.393 138.414 12.1934 136.696 11.2671L136.666 11.2444C134.971 10.3788 133.176 9.96883 131.328 10.022H131.298C130.124 10.0675 129.082 10.2346 128.123 10.5307L128.069 10.5459L128.023 10.561C126.927 10.9634 126.03 11.4418 125.362 11.996C123.882 13.1349 122.84 14.4787 122.18 16.1111C121.559 17.6296 121.275 19.0038 121.275 20.2945V35.4793H126.252V20.416C126.252 19.4442 126.497 18.5558 127.026 17.622C127.525 16.7185 128.169 16.0352 129.013 15.5037L129.043 15.4885C129.772 15.0178 130.615 14.7748 131.551 14.7748H131.643C132.862 14.7748 133.844 15.0709 134.726 15.7011C135.646 16.43 136.244 17.1664 136.551 17.956L136.558 17.9788C136.965 18.9658 137.156 19.8541 137.156 20.7728V35.4793H142.141V20.5071C142.141 19.4973 142.003 18.4875 141.734 17.5233C141.52 16.6274 141.129 15.7467 140.576 14.9115ZM125.332 12.0188C125.339 12.0112 125.347 12.0036 125.362 11.9884C125.37 11.9808 125.385 11.9732 125.393 11.9656L125.332 12.0188ZM140.538 14.8432C140.553 14.8659 140.569 14.8887 140.576 14.9115C140.584 14.9191 140.592 14.9191 140.592 14.9267L140.538 14.8432ZM157.086 35.821C157.079 35.821 157.071 35.821 157.063 35.821H157.056H157.086ZM163.467 11.753C163.474 11.7606 163.474 11.7606 163.482 11.7606C163.49 11.7682 163.49 11.7682 163.497 11.7682L163.467 11.753ZM160.154 10.4547C160.169 10.4547 160.192 10.4623 160.192 10.4699C160.207 10.4699 160.223 10.4775 160.238 10.4775L160.154 10.4547ZM168.022 30.0432C168.022 30.0508 168.022 30.0508 168.014 30.0583C168.006 30.0659 168.006 30.0735 167.999 30.0811L168.022 30.0432ZM165.016 21.7978V23.3618C165.016 24.1666 164.931 24.7816 164.762 25.2296L164.755 25.2599L164.739 25.2903C164.509 25.966 164.149 26.6418 163.766 27.3251C163.068 28.4791 162.125 29.3902 160.875 30.0963L160.844 30.1115C160.238 30.4835 159.602 30.7493 158.95 30.9011H158.919L158.889 30.9087C158.206 31.0985 157.493 31.1972 156.772 31.1972C156.534 31.1592 155.185 30.9618 154.97 30.9315C153.551 30.5139 152.37 29.8913 151.473 29.0789C151.458 29.0637 151.443 29.0486 151.427 29.0334C151.565 28.9347 168.765 17.4094 168.765 17.4094L168.083 16.1642C167.109 14.3876 165.606 12.9602 163.49 11.7758C162.439 11.1608 161.373 10.7433 160.207 10.4775C159.157 10.1814 157.976 10.0296 156.711 10.0296C154.334 10.0296 152.202 10.6218 150.2 11.8366C148.306 12.9906 146.773 14.5698 145.63 16.5059C144.955 17.5764 144.572 18.6166 144.25 19.5732L144.242 19.6036L144.234 19.634C143.928 20.6969 143.774 21.7978 143.774 22.9139C143.774 24.3185 143.928 25.4194 144.25 26.3912C144.602 27.5073 145.055 28.4943 145.638 29.4282C146.796 31.425 148.406 33.0194 150.43 34.1658L150.453 34.181C152.539 35.3199 154.763 35.8665 157.086 35.821C159.341 35.821 161.427 35.3351 163.275 34.3708C165.269 33.3535 166.833 31.9413 168.037 30.0508C168.796 28.9195 169.271 27.9021 169.525 26.8543C169.862 25.7762 170.023 24.6374 170.023 23.3542V21.7902H165.016V21.7978ZM149.042 24.7209C148.904 24.1439 148.835 23.5896 148.835 23.0581C148.843 22.8987 148.904 22.2382 148.904 22.2382C148.904 22.2458 148.958 21.6991 148.989 21.4713C149.295 19.9832 149.848 18.7305 150.653 17.7662L150.668 17.7435C151.519 16.6805 152.378 15.9972 153.36 15.5948L153.398 15.5796C154.548 15.0633 155.606 14.8432 156.741 14.8735L156.787 14.8811C158.03 14.8811 159.188 15.1241 160.315 15.6176L160.346 15.6328L160.376 15.648C160.813 15.8226 161.204 16.0352 161.557 16.2933C159.096 17.9409 149.242 24.5842 149.042 24.7209ZM145.645 29.4737C145.638 29.4585 145.63 29.4509 145.622 29.4282C145.615 29.4282 145.615 29.4206 145.607 29.4206L145.645 29.4737ZM145.615 16.5135C145.622 16.5059 145.622 16.5059 145.622 16.4983C145.63 16.4907 145.63 16.4831 145.638 16.4755L145.615 16.5135ZM144.234 26.4064C144.234 26.3988 144.234 26.3988 144.227 26.3912C144.227 26.3836 144.219 26.376 144.219 26.3608L144.234 26.4064Z" fill="#ED1C24"/>
<path d="M104.826 7.68359C113.285 7.68359 120.14 14.4712 120.14 22.838C120.14 31.2125 113.285 38.0001 104.826 38.0001C96.3682 38.0001 89.5127 31.2125 89.5127 22.838C89.5204 14.4712 96.3759 7.68359 104.826 7.68359Z" fill="url(#paint0_radial)"/>
<path d="M96.1077 22.9367C103.853 27.3327 115.524 23.5137 118.699 22.3293C118.423 14.9722 112.326 9.08813 104.827 9.08813C98.2779 9.08813 92.795 13.5752 91.338 19.6036C106.092 14.175 113.561 22.7317 113.561 22.7317C105.801 18.3357 94.114 22.1699 90.9546 23.3467C91.2307 30.7037 97.3347 36.5802 104.827 36.5802C111.375 36.5802 116.858 32.1007 118.331 26.0648C103.569 31.4857 96.1077 22.9367 96.1077 22.9367Z" fill="url(#paint1_linear)"/>
<path d="M115.846 18.6849C115.846 23.339 110.908 27.1125 104.827 27.1125C98.7457 27.1125 93.8149 23.339 93.8149 18.6849C93.8149 14.0308 98.7457 10.2573 104.827 10.2573C110.908 10.2573 115.846 14.0308 115.846 18.6849Z" fill="url(#paint2_linear)"/>
<path d="M113.561 22.7393C113.561 22.7393 106.092 14.1826 91.3379 19.6112C91.0848 20.6437 90.9468 21.7295 90.9468 22.838C90.9468 23.0126 90.9544 23.1796 90.9621 23.3542C94.1138 22.1774 105.8 18.3432 113.561 22.7393Z" fill="white"/>
<path d="M118.698 22.3291C115.524 23.5135 103.852 27.3325 96.1074 22.9365C96.1074 22.9365 103.576 31.4855 118.33 26.0722C118.576 25.032 118.721 23.9767 118.721 22.8606C118.721 22.6935 118.706 22.4961 118.698 22.3291Z" fill="white"/>
<path d="M118.698 22.3291C117.686 22.7087 115.8 23.3541 113.461 23.9083C111.444 25.8672 108.323 27.1123 104.819 27.1123C104.19 27.1123 103.592 27.0744 102.994 26.9908C106.659 28.1221 111.766 28.479 118.323 26.0722C118.568 25.032 118.714 23.9767 118.714 22.8606C118.721 22.6935 118.706 22.4961 118.698 22.3291Z" fill="url(#paint3_radial)"/>
</g>
<defs>
<radialGradient id="paint0_radial" cx="0" cy="0" r="1" gradientUnits="userSpaceOnUse" gradientTransform="translate(104.83 22.8419) scale(15.3099 15.1599)">
<stop stop-color="#971D20"/>
<stop offset="0.7473" stop-color="#EB2227"/>
<stop offset="0.7618" stop-color="#EC3B2F"/>
<stop offset="0.851" stop-color="#F49074"/>
<stop offset="0.923" stop-color="#FBC9B6"/>
<stop offset="0.9743" stop-color="#FEEEE6"/>
<stop offset="1" stop-color="white"/>
</radialGradient>
<linearGradient id="paint1_linear" x1="104.825" y1="36.5862" x2="104.825" y2="9.09223" gradientUnits="userSpaceOnUse">
<stop stop-color="#F16724"/>
<stop offset="0.5" stop-color="#EB2227"/>
<stop offset="1" stop-color="#A51E22"/>
</linearGradient>
<linearGradient id="paint2_linear" x1="104.827" y1="10.2598" x2="104.827" y2="27.1125" gradientUnits="userSpaceOnUse">
<stop stop-color="#F5967A"/>
<stop offset="1" stop-color="#E01F26"/>
</linearGradient>
<radialGradient id="paint3_radial" cx="0" cy="0" r="1" gradientUnits="userSpaceOnUse" gradientTransform="translate(108.637 25.703) scale(9.96757 9.86884)">
<stop stop-color="white"/>
<stop offset="0.2108" stop-color="#F7F7F7"/>
<stop offset="0.533" stop-color="#E2E2E2"/>
<stop offset="0.9245" stop-color="#C0C0C0"/>
<stop offset="1" stop-color="#B8B8B8"/>
</radialGradient>
<clipPath id="clip0">
<rect width="170" height="38" fill="white"/>
</clipPath>
</defs>
</svg>
